<svg width="400" height="140" viewBox="0 0 400 140" fill="none" xmlns="http://www.w3.org/2000/svg">
<rect width="400" height="140" rx="15" fill="#B2A5FF"/>
<path d="M203.939 37L205.428 45.5L214.695 49.333L221.813 44.333L226.115 48.667L221.316 56L225.122 65L233.728 66.667V73L225.287 74.5L221.482 83.833L226.28 91.167L221.813 95.667L214.695 90.667L205.593 94.5L203.939 103H197.699L195.994 94.333L187.058 90.5L179.941 95.333L175.473 91L180.272 83.667L176.631 74.5L168.191 73V66.7627L176.796 65.167L180.438 56.167L175.638 48.833L179.941 44.5L187.058 49.5L196.16 45.667L197.65 37H203.939ZM200.918 54.4902C192.435 54.4903 185.558 61.4159 185.558 69.959C185.558 78.502 192.435 85.4277 200.918 85.4277C209.401 85.4277 216.278 78.502 216.278 69.959C216.278 61.4158 209.401 54.4902 200.918 54.4902Z" fill="#7A55D4"/>
<path d="M147.007 60.9663C147.007 53.8025 152.878 48 160.114 48C167.351 48 173.222 53.8025 173.222 60.9663C173.222 69.1681 165.016 78.9994 161.589 82.7463C160.783 83.6263 159.438 83.6263 158.633 82.7463C155.206 78.9994 147 69.1681 147 60.9663H147.007ZM160.114 65.6C162.524 65.6 164.483 63.6269 164.483 61.2C164.483 58.7731 162.524 56.8 160.114 56.8C157.704 56.8 155.745 58.7731 155.745 61.2C155.745 63.6269 157.704 65.6 160.114 65.6Z" fill="black"/>
<path fill-rule="evenodd" clip-rule="evenodd" d="M197.019 63.5637C197.594 63.5637 198.165 63.6315 198.734 63.7669C199.303 63.9024 199.823 64.1263 200.293 64.4388C200.764 64.746 201.141 65.1653 201.426 65.6965C201.716 66.2277 201.86 66.8918 201.86 67.6887V75.72H199.161V74.0715H199.067C198.897 74.4048 198.656 74.7174 198.346 75.0091C198.041 75.2955 197.656 75.5272 197.19 75.7043C196.73 75.8762 196.189 75.9621 195.569 75.9621C194.814 75.9621 194.134 75.8267 193.529 75.5559C192.929 75.2798 192.453 74.8737 192.101 74.3373C191.755 73.8008 191.581 73.1392 191.581 72.3527C191.581 71.6757 191.705 71.1158 191.954 70.6731C192.202 70.2304 192.541 69.8763 192.97 69.6107C193.399 69.3451 193.883 69.1445 194.421 69.0091C194.964 68.8685 195.525 68.7668 196.104 68.7043C196.802 68.6314 197.369 68.5663 197.803 68.509C198.237 68.4465 198.553 68.3527 198.749 68.2277C198.951 68.0975 199.052 67.897 199.052 67.6262V67.5794C199.052 66.9908 198.879 66.535 198.532 66.2121C198.186 65.8892 197.687 65.7278 197.035 65.7278C196.347 65.7278 195.801 65.8789 195.398 66.1809C195 66.483 194.731 66.8398 194.591 67.2513L191.969 66.8762C192.176 66.147 192.518 65.5376 192.993 65.0481C193.469 64.5533 194.051 64.1836 194.739 63.9388C195.426 63.6888 196.187 63.5637 197.019 63.5637ZM199.06 70.0013C198.972 70.0742 198.822 70.1418 198.61 70.2043C198.403 70.2668 198.17 70.3216 197.912 70.3685C197.653 70.4153 197.397 70.457 197.144 70.4935C196.89 70.5299 196.67 70.5611 196.484 70.5872C196.065 70.6444 195.69 70.7382 195.359 70.8684C195.028 70.9986 194.767 71.181 194.576 71.4154C194.385 71.6445 194.289 71.9414 194.289 72.3059C194.289 72.8267 194.478 73.22 194.855 73.4856C195.233 73.7512 195.714 73.8842 196.298 73.8842C196.862 73.8841 197.35 73.7721 197.764 73.5481C198.178 73.319 198.496 73.0169 198.718 72.6419C198.946 72.267 199.06 71.8581 199.06 71.4154V70.0013Z" fill="black"/>
<path d="M209.866 63.5637C210.834 63.5637 211.689 63.7434 212.434 64.1027C213.184 64.4569 213.781 64.9595 214.226 65.6105C214.671 66.2564 214.925 67.0117 214.987 67.8763H212.302C212.194 67.2981 211.935 66.8164 211.526 66.431C211.123 66.0404 210.583 65.8449 209.905 65.8449C209.331 65.8449 208.827 66.0012 208.392 66.3137C207.958 66.621 207.619 67.0638 207.376 67.6419C207.138 68.22 207.019 68.9128 207.019 69.7201C207.019 70.5377 207.138 71.2409 207.376 71.8294C207.614 72.4127 207.948 72.8633 208.377 73.181C208.811 73.4934 209.321 73.6497 209.905 73.6498C210.319 73.6498 210.689 73.5716 211.014 73.4154C211.345 73.2539 211.622 73.022 211.845 72.7199C212.067 72.4178 212.22 72.0507 212.302 71.6184H214.987C214.919 72.4673 214.671 73.22 214.242 73.8762C213.813 74.5272 213.228 75.0376 212.488 75.4074C211.749 75.772 210.88 75.9544 209.882 75.9544C208.692 75.9544 207.671 75.6913 206.818 75.1653C205.969 74.6392 205.315 73.9127 204.855 72.9857C204.4 72.0534 204.172 70.9804 204.172 69.7669C204.172 68.5482 204.405 67.4726 204.87 66.5404C205.336 65.6029 205.993 64.8737 206.841 64.3528C207.694 63.8268 208.703 63.5637 209.866 63.5637Z" fill="black"/>
<path fill-rule="evenodd" clip-rule="evenodd" d="M240.554 63.5637C241.288 63.5637 241.981 63.6836 242.633 63.9231C243.29 64.1575 243.869 64.5221 244.371 65.0169C244.878 65.5117 245.276 66.1419 245.566 66.9075C245.855 67.6679 246 68.5741 246 69.6262V70.4935H237.7C237.708 71.1614 237.835 71.7369 238.079 72.22C238.333 72.7148 238.687 73.095 239.142 73.3606C239.597 73.621 240.13 73.7512 240.74 73.7512C241.149 73.7512 241.519 73.6939 241.85 73.5793C242.181 73.4595 242.468 73.2851 242.711 73.0559C242.954 72.8268 243.137 72.5428 243.262 72.2043L245.884 72.5012C245.718 73.1991 245.403 73.8085 244.937 74.3293C244.477 74.8449 243.887 75.246 243.169 75.5324C242.45 75.8137 241.627 75.9544 240.702 75.9544C239.507 75.9544 238.475 75.7044 237.606 75.2044C236.742 74.6992 236.078 73.9855 235.612 73.0637C235.147 72.1366 234.914 71.0455 234.914 69.7903C234.914 68.556 235.147 67.4726 235.612 66.5404C236.083 65.6029 236.74 64.8737 237.583 64.3528C238.426 63.8268 239.416 63.5637 240.554 63.5637ZM240.593 65.7669C240.019 65.7669 239.515 65.9074 239.08 66.1887C238.646 66.4647 238.307 66.8293 238.064 67.2824C237.852 67.6821 237.732 68.117 237.705 68.5872H243.308C243.303 68.0455 243.187 67.5638 242.959 67.1419C242.731 66.7149 242.413 66.3789 242.005 66.1341C241.601 65.8893 241.131 65.7669 240.593 65.7669Z" fill="black"/>
<path d="M188.289 62.1496H183.379V75.72H180.524V62.1496H175.613V59.7199H188.289V62.1496Z" fill="black"/>
<path d="M220.101 68.5403H220.295L224.577 63.7199H227.859L223.239 68.8996L228.13 75.72H224.771L221.122 70.5835L220.101 71.6865V75.72H217.293V59.7199H220.101V68.5403Z" fill="black"/>
<path d="M232.538 75.72H229.73V63.7199H232.538V75.72Z" fill="black"/>
<path fill-rule="evenodd" clip-rule="evenodd" d="M231.503 56.0109L231.636 56.7729L232.421 57.0978L233.136 56.5961L233.201 56.6612L233.679 57.1435L233.199 57.8781L233.521 58.6399L234.296 58.7903L234.385 58.8073V59.6028L233.537 59.7535L233.214 60.5458L233.646 61.2064L233.695 61.2812L233.633 61.3448L233.201 61.7799L233.136 61.845L232.422 61.3433L231.651 61.6679L231.485 62.5211H230.702L230.685 62.4323L230.531 61.6514L229.775 61.327L229.136 61.761L229.063 61.8108L228.999 61.7489L228.567 61.33L228.502 61.2666L228.552 61.1903L228.984 60.5293L228.676 59.7532L227.83 59.6028V58.8159L228.692 58.6558L229 57.8951L228.519 57.1596L229.062 56.6122L229.137 56.6649L229.776 57.1137L230.546 56.7897L230.679 56.0113L230.695 55.92H231.487L231.503 56.0109ZM231.167 57.7051C230.346 57.7051 229.681 58.3747 229.681 59.2007C229.682 60.0266 230.346 60.6962 231.167 60.6962C231.987 60.6962 232.652 60.0266 232.652 59.2007C232.652 58.3747 231.987 57.7051 231.167 57.7051Z" fill="black" stroke="black" stroke-width="0.5"/>
<path d="M200.959 54.4902C200.946 54.4902 200.932 54.49 200.918 54.49C192.435 54.49 185.558 61.4156 185.558 69.9587C185.558 78.5019 192.435 85.4275 200.918 85.4275C200.932 85.4275 200.946 85.4271 200.959 85.4271V103H197.699L195.994 94.3334L187.057 90.5L179.941 95.3333L175.472 90.9999L180.272 83.6666L176.631 74.4999L168.191 73.0001V66.7632L176.796 65.1667L180.437 56.1666L175.638 48.8334L179.941 44.5L187.057 49.5L196.16 45.6666L197.649 37H200.959V54.4902Z" fill="black"/>
<path fill-rule="evenodd" clip-rule="evenodd" d="M197.02 63.5654C197.594 63.5654 198.166 63.6332 198.735 63.7686C199.303 63.904 199.823 64.1279 200.294 64.4404C200.542 64.6023 200.764 64.7954 200.96 65.0194V75.7217H199.161V74.0732H199.068C198.898 74.4065 198.657 74.7191 198.347 75.0108C198.042 75.2972 197.656 75.5289 197.191 75.706C196.731 75.8779 196.19 75.9638 195.569 75.9638C194.814 75.9638 194.134 75.8284 193.529 75.5575C192.929 75.2815 192.453 74.8754 192.102 74.3389C191.755 73.8025 191.582 73.1409 191.582 72.3544C191.582 71.6774 191.706 71.1175 191.954 70.6748C192.202 70.2321 192.541 69.878 192.971 69.6124C193.4 69.3467 193.883 69.1462 194.421 69.0108C194.964 68.8702 195.525 68.7684 196.105 68.7059C196.803 68.633 197.369 68.5679 197.804 68.5107C198.238 68.4482 198.554 68.3544 198.75 68.2294C198.952 68.0992 199.053 67.8987 199.053 67.6279V67.581C199.053 66.9925 198.879 66.5367 198.533 66.2138C198.186 65.8908 197.687 65.7295 197.035 65.7295C196.348 65.7295 195.802 65.8806 195.399 66.1826C195.001 66.4847 194.732 66.8415 194.592 67.253L191.97 66.8778C192.177 66.1487 192.518 65.5393 192.994 65.0497C193.47 64.555 194.051 64.1853 194.739 63.9405C195.427 63.6905 196.187 63.5654 197.02 63.5654ZM199.06 70.003C198.972 70.0759 198.822 70.1435 198.61 70.206C198.403 70.2685 198.171 70.3233 197.912 70.3701C197.654 70.417 197.397 70.4587 197.144 70.4952C196.891 70.5316 196.671 70.5628 196.485 70.5888C196.066 70.6461 195.691 70.7399 195.36 70.8701C195.029 71.0003 194.768 71.1827 194.576 71.4171C194.385 71.6462 194.289 71.943 194.289 72.3076C194.289 72.8284 194.478 73.2217 194.856 73.4873C195.233 73.7529 195.714 73.8858 196.299 73.8858C196.862 73.8858 197.351 73.7738 197.765 73.5498C198.179 73.3207 198.497 73.0186 198.719 72.6436C198.946 72.2686 199.06 71.8597 199.06 71.4171V70.003Z" fill="#7A55D4"/>
<path d="M188.29 62.1513H183.379V75.7217H180.524V62.1513H175.614V59.7216H188.29V62.1513Z" fill="#7A55D4"/>
<path d="M187.253 75.5447L178.827 67.0594L180.753 65.1204L182.157 66.5346L182.245 66.4462C181.912 65.8017 181.8 65.1591 181.91 64.5183C182.02 63.8701 182.316 63.3029 182.799 62.8168C182.909 62.7063 183.037 62.5884 183.183 62.4632C183.329 62.3306 183.457 62.2275 183.567 62.1539L185.393 63.9934C185.28 64.0487 185.121 64.1573 184.916 64.3194C184.711 64.4741 184.525 64.6361 184.357 64.8055C183.995 65.1701 183.748 65.5771 183.616 66.0264C183.485 66.4683 183.474 66.9103 183.583 67.3522C183.693 67.7941 183.927 68.1956 184.285 68.5565L189.239 73.5449L187.253 75.5447Z" fill="#7A55D4"/>
</svg>
