<svg width="500" height="500" viewBox="0 0 500 500" fill="none" xmlns="http://www.w3.org/2000/svg">
<path d="M283.637 100L290.454 138.637L332.879 156.061L365.454 133.333L385.151 153.03L363.182 186.363L380.606 227.272L420 234.849V263.637L381.363 270.454L363.939 312.879L385.909 346.212L365.454 366.667L332.879 343.939L291.212 361.363L283.637 400H255.077L247.272 360.606L206.363 343.182L173.788 365.151L153.333 345.454L175.303 312.121L158.637 270.454L120 263.637V235.287L159.394 228.03L176.061 187.121L154.091 153.788L173.788 134.091L206.363 156.818L248.03 139.394L254.849 100H283.637ZM269.812 179.5C230.98 179.5 199.5 210.98 199.5 249.812C199.5 288.645 230.98 320.125 269.812 320.125C308.645 320.125 340.125 288.645 340.125 249.812C340.125 210.98 308.645 179.5 269.812 179.5Z" fill="#7A55D4"/>
<path d="M23.0312 208.938C23.0312 176.375 49.9063 150 83.0312 150C116.156 150 143.031 176.375 143.031 208.938C143.031 246.219 105.469 290.906 89.7812 307.938C86.0938 311.938 79.9375 311.938 76.25 307.938C60.5625 290.906 23 246.219 23 208.938H23.0312ZM83.0312 230C94.0625 230 103.031 221.031 103.031 210C103.031 198.969 94.0625 190 83.0312 190C72 190 63.0312 198.969 63.0312 210C63.0312 221.031 72 230 83.0312 230Z" fill="black"/>
<path d="M251.965 220.744C254.593 220.744 257.209 221.052 259.813 221.668C262.418 222.284 264.797 223.301 266.951 224.722C269.105 226.118 270.834 228.024 272.136 230.438C273.461 232.853 274.124 235.872 274.124 239.494V276H261.767V268.507H261.34C260.559 270.022 259.458 271.443 258.038 272.769C256.641 274.071 254.877 275.124 252.746 275.929C250.639 276.71 248.165 277.101 245.324 277.101C241.868 277.101 238.755 276.485 235.985 275.254C233.239 273.999 231.061 272.153 229.451 269.715C227.865 267.276 227.071 264.269 227.071 260.694C227.071 257.617 227.64 255.072 228.776 253.06C229.913 251.047 231.464 249.438 233.429 248.23C235.394 247.023 237.607 246.112 240.069 245.496C242.555 244.857 245.123 244.394 247.774 244.11C250.97 243.779 253.563 243.483 255.552 243.223C257.54 242.939 258.984 242.512 259.884 241.944C260.807 241.352 261.27 240.441 261.27 239.21V238.997C261.27 236.322 260.476 234.25 258.89 232.782C257.303 231.315 255.019 230.581 252.036 230.581C248.888 230.581 246.39 231.268 244.543 232.641C242.72 234.014 241.49 235.636 240.851 237.506L228.848 235.801C229.795 232.487 231.357 229.716 233.535 227.491C235.713 225.242 238.376 223.562 241.524 222.449C244.673 221.313 248.153 220.744 251.965 220.744ZM310.772 220.744C315.199 220.744 319.117 221.561 322.526 223.194C325.959 224.804 328.694 227.089 330.729 230.048C332.765 232.983 333.926 236.417 334.21 240.347H321.923C321.426 237.719 320.241 235.529 318.371 233.777C316.525 232.002 314.051 231.113 310.949 231.113C308.322 231.113 306.013 231.824 304.024 233.244C302.036 234.641 300.486 236.654 299.373 239.281C298.284 241.909 297.739 245.058 297.739 248.728C297.739 252.444 298.284 255.64 299.373 258.315C300.462 260.967 301.989 263.015 303.954 264.459C305.943 265.879 308.274 266.59 310.949 266.59C312.843 266.59 314.536 266.235 316.027 265.524C317.542 264.791 318.809 263.736 319.827 262.363C320.845 260.99 321.544 259.321 321.923 257.356H334.21C333.902 261.215 332.766 264.636 330.801 267.619C328.836 270.578 326.16 272.898 322.774 274.579C319.389 276.236 315.412 277.065 310.843 277.065C305.398 277.065 300.723 275.869 296.816 273.479C292.934 271.087 289.939 267.785 287.832 263.571C285.749 259.334 284.707 254.456 284.707 248.94C284.707 243.401 285.772 238.512 287.902 234.274C290.033 230.013 293.04 226.698 296.923 224.331C300.829 221.94 305.446 220.744 310.772 220.744ZM451.246 220.744C454.608 220.744 457.78 221.289 460.763 222.378C463.769 223.443 466.421 225.101 468.718 227.35C471.038 229.599 472.861 232.463 474.187 235.943C475.512 239.4 476.175 243.519 476.175 248.301V252.243H438.182C438.219 255.279 438.797 257.895 439.918 260.091C441.078 262.34 442.7 264.068 444.783 265.275C446.867 266.459 449.305 267.051 452.099 267.051C453.969 267.051 455.662 266.79 457.177 266.27C458.692 265.725 460.006 264.932 461.118 263.891C462.231 262.849 463.071 261.558 463.64 260.02L475.643 261.369C474.885 264.541 473.44 267.311 471.31 269.679C469.203 272.022 466.504 273.845 463.214 275.147C459.923 276.426 456.159 277.065 451.921 277.065C446.452 277.065 441.729 275.929 437.752 273.656C433.798 271.36 430.756 268.116 428.625 263.926C426.494 259.712 425.43 254.752 425.43 249.047C425.43 243.436 426.494 238.512 428.625 234.274C430.779 230.013 433.787 226.698 437.646 224.331C441.504 221.94 446.038 220.744 451.246 220.744ZM212.003 214.316H189.524V276H176.456V214.316H153.978V203.272H212.003V214.316ZM357.62 243.365H358.508L378.11 221.454H393.132L371.984 244.998L394.375 276H378.998L362.297 252.652L357.62 257.666V276H344.766V203.272H357.62V243.365ZM414.554 276H401.699V221.454H414.554V276ZM261.305 250.006C260.902 250.337 260.216 250.645 259.245 250.929C258.298 251.213 257.233 251.462 256.049 251.675C254.865 251.888 253.693 252.077 252.533 252.243C251.373 252.409 250.367 252.551 249.515 252.669C247.597 252.929 245.881 253.356 244.366 253.947C242.851 254.539 241.655 255.368 240.779 256.434C239.903 257.475 239.465 258.824 239.465 260.481C239.465 262.849 240.329 264.636 242.058 265.844C243.786 267.051 245.988 267.655 248.663 267.655C251.243 267.655 253.48 267.146 255.374 266.128C257.268 265.086 258.724 263.713 259.742 262.009C260.784 260.304 261.305 258.446 261.305 256.434V250.006ZM451.424 230.759C448.796 230.759 446.488 231.397 444.499 232.676C442.51 233.93 440.959 235.588 439.847 237.647C438.875 239.464 438.329 241.441 438.205 243.578H463.853C463.829 241.116 463.296 238.926 462.255 237.009C461.213 235.068 459.757 233.54 457.887 232.428C456.04 231.315 453.886 230.759 451.424 230.759Z" fill="black"/>
<path d="M409.813 186.413L410.424 189.877L414.019 191.354L416.945 189.312L417.288 189.073L417.585 189.369L419.777 191.562L419.553 191.902L417.576 194.9L419.051 198.363L422.599 199.047L423.005 199.124V202.74L422.592 202.813L419.126 203.425L417.646 207.026L419.626 210.029L419.851 210.369L419.562 210.658L417.585 212.636L417.288 212.932L416.945 212.692L414.021 210.651L410.492 212.127L409.812 215.601L409.732 216.005H406.148L406.069 215.602L405.365 212.052L401.903 210.577L398.979 212.55L398.645 212.776L398.354 212.495L396.376 210.591L396.076 210.303L396.306 209.956L398.285 206.951L396.874 203.424L393.413 202.813L393 202.74V199.163L393.409 199.088L396.948 198.436L398.357 194.978L396.379 191.976L396.154 191.635L398.643 189.146L398.986 189.386L401.91 191.426L405.432 189.953L406.045 186.415L406.116 186H409.74L409.813 186.413ZM408.274 194.114C404.52 194.114 401.477 197.158 401.477 200.912C401.477 204.666 404.52 207.71 408.274 207.71C412.029 207.71 415.072 204.666 415.072 200.912C415.072 197.158 412.029 194.114 408.274 194.114Z" fill="black"/>
<path d="M409.813 186.413L411.783 186.066L411.783 186.064L409.813 186.413ZM410.424 189.877L408.454 190.224L408.645 191.309L409.664 191.727L410.424 189.877ZM414.019 191.354L413.259 193.204L414.268 193.618L415.163 192.994L414.019 191.354ZM416.945 189.312L418.089 190.953L418.09 190.952L416.945 189.312ZM417.288 189.073L418.7 187.657L417.515 186.476L416.143 187.433L417.288 189.073ZM417.585 189.369L418.999 187.955L418.997 187.953L417.585 189.369ZM419.777 191.562L421.447 192.662L422.345 191.3L421.192 190.147L419.777 191.562ZM419.553 191.902L421.223 193.003L421.223 193.003L419.553 191.902ZM417.576 194.9L415.906 193.8L415.315 194.696L415.736 195.684L417.576 194.9ZM419.051 198.363L417.211 199.147L417.628 200.126L418.672 200.327L419.051 198.363ZM422.599 199.047L422.22 201.011L422.225 201.012L422.599 199.047ZM423.005 199.124H425.005V197.468L423.378 197.159L423.005 199.124ZM423.005 202.74L423.354 204.71L425.005 204.417V202.74H423.005ZM422.592 202.813L422.939 204.783L422.941 204.783L422.592 202.813ZM419.126 203.425L418.779 201.455L417.694 201.646L417.276 202.665L419.126 203.425ZM417.646 207.026L415.796 206.266L415.395 207.244L415.977 208.127L417.646 207.026ZM419.626 210.029L417.956 211.13L417.957 211.132L419.626 210.029ZM419.851 210.369L421.267 211.781L422.418 210.626L421.519 209.266L419.851 210.369ZM419.562 210.658L420.977 212.072L420.979 212.07L419.562 210.658ZM417.585 212.636L418.997 214.052L418.999 214.05L417.585 212.636ZM417.288 212.932L416.143 214.572L417.515 215.529L418.7 214.348L417.288 212.932ZM416.945 212.692L415.801 214.332L415.801 214.332L416.945 212.692ZM414.021 210.651L415.166 209.011L414.265 208.382L413.25 208.806L414.021 210.651ZM410.492 212.127L409.721 210.282L408.735 210.694L408.53 211.742L410.492 212.127ZM409.812 215.601L407.849 215.216L407.849 215.217L409.812 215.601ZM409.732 216.005V218.005H411.379L411.695 216.389L409.732 216.005ZM406.148 216.005L404.186 216.39L404.503 218.005H406.148V216.005ZM406.069 215.602L408.032 215.217L408.031 215.212L406.069 215.602ZM405.365 212.052L407.327 211.663L407.121 210.626L406.149 210.212L405.365 212.052ZM401.903 210.577L402.687 208.737L401.686 208.311L400.785 208.919L401.903 210.577ZM398.979 212.55L397.861 210.892L397.859 210.893L398.979 212.55ZM398.645 212.776L397.255 214.215L398.421 215.342L399.765 214.433L398.645 212.776ZM398.354 212.495L399.743 211.057L399.741 211.054L398.354 212.495ZM396.376 210.591L397.763 209.15L397.762 209.149L396.376 210.591ZM396.076 210.303L394.408 209.199L393.488 210.589L394.69 211.745L396.076 210.303ZM396.306 209.956L397.973 211.06L397.976 211.056L396.306 209.956ZM398.285 206.951L399.955 208.051L400.53 207.179L400.142 206.208L398.285 206.951ZM396.874 203.424L398.731 202.681L398.318 201.648L397.221 201.454L396.874 203.424ZM393.413 202.813L393.064 204.783L393.066 204.783L393.413 202.813ZM393 202.74H391V204.417L392.651 204.71L393 202.74ZM393 199.163L392.639 197.196L391 197.497V199.163H393ZM393.409 199.088L393.771 201.055L393.772 201.055L393.409 199.088ZM396.948 198.436L397.311 200.402L398.387 200.204L398.8 199.19L396.948 198.436ZM398.357 194.978L400.21 195.732L400.607 194.757L400.027 193.877L398.357 194.978ZM396.379 191.976L394.709 193.076L394.709 193.076L396.379 191.976ZM396.154 191.635L394.74 190.221L393.587 191.374L394.484 192.735L396.154 191.635ZM398.643 189.146L399.785 187.505L398.412 186.549L397.228 187.732L398.643 189.146ZM398.986 189.386L400.131 187.746L400.129 187.744L398.986 189.386ZM401.91 191.426L400.766 193.066L401.667 193.695L402.682 193.271L401.91 191.426ZM405.432 189.953L406.203 191.798L407.215 191.375L407.402 190.295L405.432 189.953ZM406.045 186.415L408.016 186.757L408.016 186.754L406.045 186.415ZM406.116 186V184H404.43L404.145 185.661L406.116 186ZM409.74 186L411.71 185.651L411.417 184H409.74V186ZM408.274 194.114L408.274 192.114H408.274V194.114ZM401.477 200.912H399.477V200.912L401.477 200.912ZM408.274 207.71V209.71H408.274L408.274 207.71ZM415.072 200.912L417.072 200.912V200.912H415.072ZM409.813 186.413L407.844 186.76L408.454 190.224L410.424 189.877L412.393 189.53L411.783 186.066L409.813 186.413ZM410.424 189.877L409.664 191.727L413.259 193.204L414.019 191.354L414.778 189.504L411.184 188.027L410.424 189.877ZM414.019 191.354L415.163 192.994L418.089 190.953L416.945 189.312L415.801 187.672L412.875 189.713L414.019 191.354ZM416.945 189.312L418.09 190.952L418.433 190.713L417.288 189.073L416.143 187.433L415.801 187.673L416.945 189.312ZM417.288 189.073L415.876 190.49L416.173 190.786L417.585 189.369L418.997 187.953L418.7 187.657L417.288 189.073ZM417.585 189.369L416.171 190.783L418.363 192.976L419.777 191.562L421.192 190.147L418.999 187.955L417.585 189.369ZM419.777 191.562L418.107 190.461L417.883 190.802L419.553 191.902L421.223 193.003L421.447 192.662L419.777 191.562ZM419.553 191.902L417.883 190.801L415.906 193.8L417.576 194.9L419.246 196.001L421.223 193.003L419.553 191.902ZM417.576 194.9L415.736 195.684L417.211 199.147L419.051 198.363L420.891 197.58L419.416 194.117L417.576 194.9ZM419.051 198.363L418.672 200.327L422.22 201.011L422.599 199.047L422.977 197.083L419.429 196.399L419.051 198.363ZM422.599 199.047L422.225 201.012L422.632 201.089L423.005 199.124L423.378 197.159L422.972 197.082L422.599 199.047ZM423.005 199.124H421.005V202.74H423.005H425.005V199.124H423.005ZM423.005 202.74L422.656 200.771L422.243 200.844L422.592 202.813L422.941 204.783L423.354 204.71L423.005 202.74ZM422.592 202.813L422.244 200.844L418.779 201.455L419.126 203.425L419.473 205.394L422.939 204.783L422.592 202.813ZM419.126 203.425L417.276 202.665L415.796 206.266L417.646 207.026L419.496 207.786L420.976 204.185L419.126 203.425ZM417.646 207.026L415.977 208.127L417.956 211.13L419.626 210.029L421.296 208.929L419.316 205.926L417.646 207.026ZM419.626 210.029L417.957 211.132L418.182 211.472L419.851 210.369L421.519 209.266L421.294 208.927L419.626 210.029ZM419.851 210.369L418.434 208.957L418.146 209.246L419.562 210.658L420.979 212.07L421.267 211.781L419.851 210.369ZM419.562 210.658L418.148 209.244L416.171 211.222L417.585 212.636L418.999 214.05L420.977 212.072L419.562 210.658ZM417.585 212.636L416.173 211.219L415.876 211.515L417.288 212.932L418.7 214.348L418.997 214.052L417.585 212.636ZM417.288 212.932L418.433 211.292L418.09 211.052L416.945 212.692L415.801 214.332L416.143 214.572L417.288 212.932ZM416.945 212.692L418.09 211.052L415.166 209.011L414.021 210.651L412.877 212.291L415.801 214.332L416.945 212.692ZM414.021 210.651L413.25 208.806L409.721 210.282L410.492 212.127L411.264 213.972L414.793 212.497L414.021 210.651ZM410.492 212.127L408.53 211.742L407.849 215.216L409.812 215.601L411.774 215.985L412.455 212.512L410.492 212.127ZM409.812 215.601L407.849 215.217L407.77 215.621L409.732 216.005L411.695 216.389L411.774 215.985L409.812 215.601ZM409.732 216.005V214.005H406.148V216.005V218.005H409.732V216.005ZM406.148 216.005L408.111 215.62L408.032 215.217L406.069 215.602L404.107 215.986L404.186 216.39L406.148 216.005ZM406.069 215.602L408.031 215.212L407.327 211.663L405.365 212.052L403.403 212.441L404.108 215.991L406.069 215.602ZM405.365 212.052L406.149 210.212L402.687 208.737L401.903 210.577L401.12 212.417L404.581 213.892L405.365 212.052ZM401.903 210.577L400.785 208.919L397.861 210.892L398.979 212.55L400.098 214.208L403.022 212.235L401.903 210.577ZM398.979 212.55L397.859 210.893L397.524 211.12L398.645 212.776L399.765 214.433L400.1 214.206L398.979 212.55ZM398.645 212.776L400.034 211.338L399.743 211.057L398.354 212.495L396.964 213.933L397.255 214.215L398.645 212.776ZM398.354 212.495L399.741 211.054L397.763 209.15L396.376 210.591L394.989 212.031L396.966 213.936L398.354 212.495ZM396.376 210.591L397.762 209.149L397.462 208.861L396.076 210.303L394.69 211.745L394.99 212.033L396.376 210.591ZM396.076 210.303L397.744 211.407L397.973 211.06L396.306 209.956L394.638 208.852L394.408 209.199L396.076 210.303ZM396.306 209.956L397.976 211.056L399.955 208.051L398.285 206.951L396.615 205.851L394.635 208.856L396.306 209.956ZM398.285 206.951L400.142 206.208L398.731 202.681L396.874 203.424L395.017 204.167L396.428 207.694L398.285 206.951ZM396.874 203.424L397.221 201.454L393.76 200.844L393.413 202.813L393.066 204.783L396.527 205.393L396.874 203.424ZM393.413 202.813L393.762 200.844L393.349 200.771L393 202.74L392.651 204.71L393.064 204.783L393.413 202.813ZM393 202.74H395V199.163H393H391V202.74H393ZM393 199.163L393.361 201.13L393.771 201.055L393.409 199.088L393.048 197.121L392.639 197.196L393 199.163ZM393.409 199.088L393.772 201.055L397.311 200.402L396.948 198.436L396.586 196.469L393.047 197.121L393.409 199.088ZM396.948 198.436L398.8 199.19L400.21 195.732L398.357 194.978L396.505 194.223L395.096 197.681L396.948 198.436ZM398.357 194.978L400.027 193.877L398.049 190.875L396.379 191.976L394.709 193.076L396.687 196.078L398.357 194.978ZM396.379 191.976L398.049 190.875L397.824 190.534L396.154 191.635L394.484 192.735L394.709 193.076L396.379 191.976ZM396.154 191.635L397.569 193.049L400.057 190.561L398.643 189.146L397.228 187.732L394.74 190.221L396.154 191.635ZM398.643 189.146L397.5 190.788L397.844 191.027L398.986 189.386L400.129 187.744L399.785 187.505L398.643 189.146ZM398.986 189.386L397.842 191.026L400.766 193.066L401.91 191.426L403.055 189.786L400.131 187.746L398.986 189.386ZM401.91 191.426L402.682 193.271L406.203 191.798L405.432 189.953L404.66 188.108L401.139 189.581L401.91 191.426ZM405.432 189.953L407.402 190.295L408.016 186.757L406.045 186.415L404.074 186.073L403.461 189.612L405.432 189.953ZM406.045 186.415L408.016 186.754L408.087 186.339L406.116 186L404.145 185.661L404.074 186.076L406.045 186.415ZM406.116 186V188H409.74V186V184H406.116V186ZM409.74 186L407.771 186.349L407.844 186.762L409.813 186.413L411.783 186.064L411.71 185.651L409.74 186ZM408.274 194.114V192.114C403.415 192.114 399.477 196.053 399.477 200.912H401.477H403.477C403.477 198.262 405.625 196.114 408.274 196.114V194.114ZM401.477 200.912L399.477 200.912C399.477 205.771 403.415 209.71 408.274 209.71V207.71V205.71C405.625 205.71 403.477 203.562 403.477 200.912L401.477 200.912ZM408.274 207.71L408.274 209.71C413.133 209.71 417.072 205.771 417.072 200.912L415.072 200.912L413.072 200.912C413.072 203.562 410.924 205.71 408.274 205.71L408.274 207.71ZM415.072 200.912H417.072C417.072 196.053 413.133 192.114 408.274 192.114L408.274 194.114L408.274 196.114C410.924 196.114 413.072 198.262 413.072 200.912H415.072Z" fill="black"/>
<path d="M270 179.501C269.938 179.501 269.875 179.5 269.812 179.5C230.98 179.5 199.5 210.98 199.5 249.812C199.5 288.645 230.98 320.125 269.812 320.125C269.875 320.125 269.938 320.123 270 320.123V400H255.077L247.272 360.606L206.363 343.182L173.788 365.151L153.333 345.454L175.303 312.121L158.637 270.454L120 263.637V235.287L159.394 228.03L176.061 187.121L154.091 153.788L173.788 134.091L206.363 156.818L248.03 139.394L254.849 100H270V179.501Z" fill="black"/>
<path fill-rule="evenodd" clip-rule="evenodd" d="M251.968 220.752C254.596 220.752 257.212 221.06 259.816 221.676C262.42 222.291 264.799 223.309 266.954 224.729C268.088 225.465 269.104 226.343 270.002 227.361V276.008H261.769V268.514H261.343C260.562 270.03 259.461 271.45 258.041 272.776C256.644 274.078 254.88 275.131 252.75 275.936C250.643 276.717 248.168 277.108 245.328 277.108C241.871 277.108 238.758 276.493 235.988 275.261C233.242 274.007 231.063 272.161 229.454 269.722C227.867 267.284 227.075 264.277 227.075 260.702C227.075 257.624 227.642 255.079 228.779 253.067C229.915 251.055 231.466 249.445 233.431 248.238C235.396 247.031 237.61 246.119 240.072 245.504C242.558 244.864 245.126 244.402 247.778 244.118C250.974 243.787 253.566 243.491 255.554 243.23C257.543 242.946 258.988 242.52 259.887 241.952C260.81 241.36 261.272 240.448 261.272 239.218V239.005C261.272 236.329 260.479 234.258 258.893 232.79C257.307 231.322 255.022 230.589 252.039 230.589C248.89 230.589 246.393 231.275 244.546 232.648C242.723 234.021 241.492 235.643 240.853 237.513L228.85 235.808C229.797 232.494 231.36 229.724 233.538 227.499C235.716 225.25 238.379 223.569 241.528 222.457C244.676 221.32 248.157 220.752 251.968 220.752ZM261.307 250.013C260.905 250.345 260.218 250.652 259.248 250.936C258.301 251.22 257.235 251.469 256.051 251.682C254.868 251.895 253.696 252.085 252.536 252.251C251.376 252.416 250.37 252.558 249.518 252.677C247.601 252.937 245.884 253.363 244.369 253.955C242.854 254.547 241.658 255.376 240.782 256.441C239.906 257.483 239.468 258.832 239.468 260.489C239.468 262.856 240.332 264.644 242.06 265.851C243.788 267.059 245.99 267.663 248.666 267.663C251.246 267.663 253.484 267.153 255.377 266.135C257.271 265.094 258.727 263.721 259.745 262.016C260.786 260.312 261.307 258.453 261.307 256.441V250.013Z" fill="#7A55D4"/>
<path d="M212.005 214.324H189.527V276.008H176.458V214.324H153.98V203.28H212.005V214.324Z" fill="#7A55D4"/>
<path d="M207.26 275.203L168.69 236.634L177.504 227.82L183.932 234.248L184.334 233.846C182.811 230.917 182.3 227.996 182.802 225.083C183.305 222.137 184.661 219.559 186.87 217.349C187.372 216.847 187.958 216.311 188.628 215.742C189.298 215.139 189.884 214.671 190.386 214.336L198.747 222.697C198.229 222.949 197.5 223.442 196.563 224.179C195.625 224.882 194.772 225.619 194.002 226.389C192.344 228.046 191.214 229.896 190.612 231.938C190.009 233.947 189.959 235.956 190.461 237.965C190.963 239.973 192.035 241.798 193.675 243.439L216.35 266.113L207.26 275.203Z" fill="#7A55D4"/>
</svg>
